<svg xmlns="http://www.w3.org/2000/svg" width="185.572" height="104"><path d="M20.507 0c11.61 0 21.051 8 21.268 19.134a4.615 4.615 0 1 1-9.223.217c-.109-6.271-5.424-10.92-12.154-10.92-6.294 0-11.067 4.432-11.067 10.487 0 6.594 4.448 9.514 13.671 12.865 9.873 3.568 18.881 7.783 18.881 20.323 0 10.92-8.573 19.676-20.507 19.676-11.719 0-21.377-8.216-21.377-19.351 0-6.919 3.363-11.784 6.618-11.784a4.21 4.21 0 0 1 4.557 4.324c0 2.162-1.844 3.134-1.844 7.027 0 6.919 5.642 11.351 12.045 11.351 6.727 0 11.175-4.649 11.175-10.27 0-6.919-4.448-9.837-13.671-13.082C8.573 36.325 0 31.891 0 19.676 0 8.65 8.9 0 20.507 0ZM67.861 71.784a21.407 21.407 0 1 1 .326-42.811c12.8 0 21.809 9.514 21.809 22.488v15.783a4.724 4.724 0 0 1-9.44 0V51.783c0-8.541-4.883-14.379-12.587-14.379-6.836 0-12.26 5.73-12.26 13.082 0 6.811 5.316 12.648 12.045 12.648 2.5 0 3.581-.648 5.1-.648a4.3 4.3 0 0 1 4.231 4.215c0 3.351-4.018 5.082-9.225 5.082ZM116.734 104c-12.154 0-22.245-8.65-22.245-19.893 0-3.784 2.17-5.513 4.666-5.513s4.557 1.623 4.666 4.757c.109 7.027 5.751 12.215 12.8 12.215 7.488 0 12.369-4.757 12.369-10.92 0-7.027-5.425-9.945-14.648-12.865-10.743-3.459-19.857-8.216-19.857-21.4a21.087 21.087 0 0 1 21.483-21.4c12.26 0 22.353 8.864 22.353 20.54 0 7.136-2.929 12.649-6.944 12.649a4.331 4.331 0 0 1-4.557-4.324c0-2.487 2.17-3.568 2.17-8 0-7.461-5.859-12.432-12.913-12.432a11.977 11.977 0 0 0-12.26 12c0 7.675 5.533 10.92 14.648 13.946 10.525 3.459 19.857 7.783 19.857 20.432 0 11.351-9.006 20.215-21.592 20.215ZM164.957 71.783c-12.154 0-22.136-9.514-22.136-21.4a21.447 21.447 0 0 1 21.592-21.4c12.045 0 21.159 8.325 21.159 18.92 0 4.107-2.928 6.594-7.7 6.594h-12.481a3.965 3.965 0 1 1 0-7.894h9.332c.867 0 1.52-.433 1.52-1.3 0-3.134-4.016-8-11.5-8-6.944 0-12.586 5.946-12.586 13.082a12.874 12.874 0 0 0 12.913 12.974c8.247 0 10.96-4.865 14.324-4.865 2.822 0 4.34 1.837 4.34 3.893 0 1.945-1.3 3.676-4.557 5.73a26.889 26.889 0 0 1-14.218 3.674Z" fill="#00d639"/></svg>